<?xml version="1.0" standalone="no"?>
<!DOCTYPE svg PUBLIC "-//W3C//DTD SVG 20010904//EN"
 "http://www.w3.org/TR/2001/REC-SVG-20010904/DTD/svg10.dtd">
<svg version="1.0" xmlns="http://www.w3.org/2000/svg"
 width="500.000000pt" height="500.000000pt" viewBox="0 0 500.000000 500.000000"
 preserveAspectRatio="xMidYMid meet">

<g transform="translate(0.000000,500.000000) scale(0.100000,-0.100000)"
fill="#000000" stroke="none">
<path d="M2270 4989 c-327 -33 -692 -160 -975 -338 -468 -295 -824 -766 -974
-1291 -231 -808 -1 -1674 600 -2255 564 -546 1356 -764 2114 -581 814 197
1459 835 1664 1647 170 672 32 1361 -383 1919 -87 117 -282 319 -396 409 -322
256 -682 414 -1086 476 -123 19 -437 27 -564 14z m538 -45 c413 -53 823 -240
1157 -526 348 -298 609 -729 714 -1178 58 -247 73 -583 38 -820 -74 -490 -290
-922 -632 -1265 -184 -184 -363 -313 -590 -426 -443 -218 -905 -285 -1391
-199 -735 130 -1382 649 -1667 1340 -76 185 -133 401 -157 600 -13 109 -13
411 0 520 25 204 82 420 162 610 188 449 537 838 966 1079 428 240 901 330
1400 265z"/>
<path d="M2444 4730 c-22 -33 -42 -59 -45 -57 -4 1 -26 26 -49 55 -23 30 -43
52 -46 50 -7 -7 9 -178 17 -178 4 0 9 26 11 57 l3 57 29 -42 c16 -23 32 -42
37 -42 4 0 21 21 36 48 l28 47 3 -62 c2 -48 7 -63 18 -63 12 0 14 14 8 93 -4
50 -8 93 -9 95 -1 1 -20 -24 -41 -58z"/>
<path d="M2094 4760 c-31 -12 -64 -59 -64 -91 0 -36 42 -86 80 -94 33 -7 84
15 100 44 13 26 13 77 -1 103 -6 11 -26 26 -44 34 -39 16 -42 16 -71 4z m85
-46 c12 -15 21 -34 21 -44 0 -10 -9 -29 -21 -44 -40 -50 -119 -21 -119 44 0
65 79 94 119 44z"/>
<path d="M2712 4748 c-15 -15 -16 -64 -2 -73 6 -4 10 6 10 23 0 31 19 46 45
36 30 -12 16 -53 -32 -99 l-47 -45 35 0 c19 0 44 -3 57 -6 16 -5 22 -2 22 10
0 11 -9 16 -26 16 l-26 0 26 31 c36 42 43 75 21 99 -20 22 -65 26 -83 8z"/>
<path d="M2912 4730 c-26 -11 -42 -47 -42 -95 0 -37 37 -75 72 -75 35 0 68 45
68 93 0 62 -45 97 -98 77z m72 -51 c21 -60 -55 -122 -84 -69 -12 23 -6 66 12
88 18 22 61 10 72 -19z"/>
<path d="M1824 4704 c-17 -7 25 -184 43 -184 11 0 13 8 8 31 -11 48 13 55 52
17 40 -38 67 -28 29 11 -21 22 -25 34 -20 58 10 50 -9 73 -59 72 -23 0 -47 -3
-53 -5z m85 -33 c13 -24 -8 -55 -34 -50 -18 4 -39 52 -27 63 12 13 52 5 61
-13z"/>
<path d="M3102 4684 c-15 -10 -22 -25 -22 -47 0 -33 15 -28 22 8 4 22 35 32
50 17 20 -20 -1 -60 -46 -88 -25 -16 -43 -31 -40 -35 2 -4 20 -10 40 -13 19
-4 42 -10 50 -13 8 -3 14 1 14 11 0 9 -8 16 -18 16 -33 0 -32 12 4 45 36 34
42 61 22 87 -20 25 -51 30 -76 12z"/>
<path d="M1678 4662 c-27 -9 -48 -21 -49 -27 0 -5 10 -45 22 -87 14 -52 27
-78 36 -78 10 0 13 6 9 16 -21 54 -19 62 18 74 20 6 36 16 36 21 0 12 -22 12
-54 0 -22 -9 -26 -7 -35 19 -9 29 -8 30 30 41 21 7 39 18 39 26 0 7 -1 13 -2
12 -2 0 -24 -8 -50 -17z"/>
<path d="M3269 4629 c-21 -21 -22 -50 -2 -56 6 -2 13 6 15 19 4 32 52 33 56 1
3 -21 -26 -49 -94 -89 -16 -9 -12 -13 31 -27 31 -11 52 -14 59 -7 6 6 0 13
-18 20 l-27 10 41 38 c51 50 52 75 3 101 -30 15 -40 14 -64 -10z"/>
<path d="M2187 3984 c-3 -4 -4 -19 -1 -34 5 -25 1 -30 -52 -60 -292 -164 -479
-441 -530 -785 -16 -107 -14 -180 12 -324 8 -46 14 -84 12 -85 -2 -1 -20 -9
-41 -19 -26 -12 -37 -22 -34 -32 3 -7 9 -31 13 -52 7 -38 7 -38 -14 -20 -36
33 -57 19 -58 -38 l-2 -50 8 45 c5 30 8 37 10 20 2 -21 3 -22 7 -5 7 30 21 41
29 22 3 -9 12 -17 19 -17 22 0 26 -29 5 -42 -11 -7 -20 -18 -20 -25 0 -6 -5
-13 -12 -15 -6 -2 -9 -12 -5 -21 8 -21 34 -12 42 14 10 32 23 22 38 -28 133
-450 170 -595 156 -605 -11 -8 -11 -9 4 -4 10 3 17 0 17 -8 0 -8 -18 -17 -42
-22 -43 -8 -43 -8 -10 -12 18 -2 30 -8 27 -13 -4 -5 4 -10 17 -10 19 -1 18 -3
-7 -9 l-30 -7 27 -7 c16 -5 25 -12 22 -17 -3 -5 2 -9 10 -9 9 0 18 -11 22 -25
4 -16 17 -28 41 -36 35 -11 35 -23 -2 -32 -12 -3 -6 -5 15 -6 23 -1 31 -4 22
-10 -9 -5 0 -10 29 -14 23 -3 45 -10 48 -15 3 -5 17 -12 31 -15 14 -3 63 -15
110 -27 88 -22 246 -50 290 -50 24 0 25 2 22 52 -4 60 14 58 21 -2 4 -33 4
-33 5 8 3 59 22 53 22 -7 0 -39 -4 -51 -17 -54 -31 -8 249 -5 317 3 l65 9 -82
-4 c-50 -2 -85 1 -92 8 -8 8 -11 8 -11 0 0 -7 -9 -11 -20 -10 -17 1 -20 8 -20
49 l0 48 38 2 c20 1 3 4 -38 8 -52 4 -26 6 87 6 l163 -1 0 -33 c0 -18 -5 -43
-11 -54 -11 -20 -10 -20 47 -13 77 9 243 69 269 96 l20 22 -36 -21 c-51 -31
-59 -28 -59 20 0 51 -11 43 -21 -15 l-6 -42 -2 50 c0 28 3 55 7 62 13 21 30
-1 35 -42 4 -40 4 -40 5 8 1 30 -2 47 -10 47 -17 0 -3 11 19 14 10 2 18 7 18
12 0 5 11 24 23 42 13 18 20 31 15 30 -4 -2 -19 5 -33 15 -27 19 -20 23 13 6
21 -10 22 -10 2 6 -11 8 -62 30 -115 47 -72 23 -113 31 -170 31 -56 0 -67 2
-45 8 20 6 8 7 -34 4 -35 -3 -77 -5 -92 -5 -28 0 -29 -2 -31 -47 l-1 -48 -7
50 -6 50 -5 -45 -6 -45 -3 45 -3 45 -7 -50 -7 -50 -3 50 -3 50 -7 -50 -8 -50
2 50 1 50 75 5 c72 5 70 5 -55 12 -71 5 -150 7 -175 7 l-45 -2 40 -6 c31 -6
11 -9 -82 -15 l-123 -9 0 -48 c0 -50 -7 -58 -28 -37 -14 14 -16 72 -3 63 5 -3
12 -1 16 5 4 6 -9 10 -32 10 -21 0 -33 -4 -27 -8 6 -4 15 -21 18 -39 6 -24 3
-34 -11 -41 -30 -17 50 -26 102 -12 61 17 427 8 555 -14 106 -18 238 -55 246
-68 3 -4 -8 -14 -25 -21 -17 -7 -29 -15 -27 -18 2 -2 -5 -4 -17 -5 -12 0 -58
-8 -102 -18 -170 -37 -516 -32 -705 10 -36 8 -75 16 -86 19 -14 3 -24 16 -29
37 -13 51 -12 52 30 65 l40 12 -50 -5 c-48 -5 -50 -5 -63 25 -7 17 -13 33 -12
37 1 4 -4 11 -12 15 -11 7 -11 9 1 9 9 0 6 6 -7 18 -17 14 -205 403 -233 482
l-9 25 21 -25 c114 -139 207 -218 339 -289 95 -51 246 -100 325 -106 l60 -5
-71 14 c-143 28 -271 76 -372 140 -72 46 -41 39 43 -9 73 -42 231 -102 241
-93 2 3 -22 12 -54 22 -92 29 -244 112 -318 174 -254 214 -395 566 -355 890
37 304 220 587 482 743 71 42 84 46 92 26 3 -9 -25 -31 -77 -62 -108 -65 -255
-212 -324 -324 -180 -294 -188 -651 -22 -959 206 -381 644 -574 1064 -468 78
20 111 25 119 17 7 -7 7 -14 2 -20 -15 -15 -172 -53 -255 -62 l-75 -8 80 4
c44 2 116 13 160 25 88 23 263 106 310 146 36 31 32 29 -65 -30 -41 -25 -80
-46 -87 -46 -20 0 -15 38 6 45 76 24 264 187 350 304 180 245 229 572 129 866
-95 276 -318 503 -588 597 -161 56 -379 65 -541 24 -52 -13 -101 -26 -109 -27
-26 -7 -16 25 13 39 15 7 27 20 27 28 0 17 -9 18 -46 4 -22 -9 -31 -7 -49 10
-22 20 -37 25 -48 14z m42 -23 c8 -14 7 -20 -3 -24 -18 -7 -26 1 -26 25 0 24
17 23 29 -1z m74 -18 c-41 -15 -184 -89 -231 -121 -31 -20 -87 -66 -125 -101
-224 -211 -338 -490 -324 -791 13 -268 118 -494 322 -688 53 -51 91 -92 86
-92 -21 0 -181 163 -230 234 -68 98 -136 242 -162 341 -32 122 -37 331 -11
455 54 262 213 501 433 651 69 46 241 131 249 122 3 -3 0 -8 -7 -10z m340 -30
c-25 -5 -28 -15 -13 -43 8 -16 7 -18 -4 -14 -8 3 -16 15 -18 27 -3 18 -7 16
-21 -17 -19 -43 -10 -66 24 -66 12 0 23 -10 29 -25 5 -14 20 -27 35 -31 29 -7
33 -22 9 -31 -12 -4 -30 8 -59 38 -24 24 -53 50 -66 58 -13 8 -35 21 -49 29
-28 16 -32 19 49 -46 92 -73 102 -84 90 -98 -10 -12 -9 -13 5 -8 11 4 28 -3
49 -22 31 -28 31 -28 8 -2 -27 31 -23 65 7 53 9 -4 29 -7 45 -6 21 1 30 -5 37
-24 14 -38 12 -71 -5 -85 -13 -10 -19 -9 -38 6 l-22 19 18 -22 c18 -21 18 -22
-10 -37 -36 -19 -26 -20 18 -2 26 11 46 12 84 5 28 -5 60 -7 73 -4 12 3 22 1
22 -3 0 -5 11 -7 24 -5 18 4 27 -1 37 -18 11 -22 4 -34 -17 -29 -4 1 -10 -4
-15 -11 -6 -10 -11 -10 -21 -1 -26 21 -15 -30 16 -75 34 -51 47 -58 17 -9 -12
19 -18 41 -15 50 6 16 8 15 27 -1 19 -18 20 -17 8 4 -9 19 -8 23 10 28 11 4
22 5 23 3 19 -22 76 -115 76 -122 0 -5 -12 1 -26 15 l-27 24 18 -27 c9 -16 14
-28 9 -28 -5 0 -19 12 -31 28 l-23 27 21 -37 c20 -37 16 -51 -9 -26 -7 7 -12
8 -12 4 0 -5 -7 -2 -17 5 -15 13 -15 12 -5 -8 15 -28 15 -30 -3 -30 -8 0 -12
3 -10 7 2 4 -2 7 -9 7 -8 0 -12 -7 -8 -15 3 -10 1 -13 -6 -8 -6 3 -15 -2 -21
-11 -9 -17 -10 -17 -17 0 -4 10 -1 24 5 30 9 9 11 7 5 -8 -6 -17 -5 -18 7 -7
12 11 12 15 -1 25 -20 16 -23 33 -10 57 8 15 7 26 -5 44 -9 13 -14 29 -13 36
2 7 -3 15 -9 17 -8 3 -13 -5 -13 -21 0 -28 -9 -33 -29 -13 -10 10 -11 9 -6 -4
4 -12 -8 -23 -49 -45 -30 -16 -53 -30 -51 -32 1 -2 26 8 54 22 28 14 55 26 60
26 22 0 41 -59 37 -111 -3 -40 0 -55 14 -69 11 -11 24 -37 31 -60 7 -22 23
-52 37 -65 14 -15 19 -25 12 -25 -7 0 -11 -2 -9 -5 3 -2 19 1 37 7 27 11 36 9
73 -11 36 -21 46 -22 79 -12 21 6 43 18 50 26 7 8 20 15 30 15 23 0 37 -49 18
-62 -7 -4 -44 -26 -83 -49 -38 -22 -77 -45 -85 -50 -37 -22 -207 -107 -227
-113 -18 -6 -23 -3 -24 11 -1 12 -3 10 -8 -7 -5 -21 -26 -33 -115 -69 -129
-51 -166 -57 -217 -30 -21 10 -41 19 -44 19 -12 0 21 -39 37 -43 19 -5 25 -27
8 -27 -5 0 -10 5 -10 11 0 6 -7 3 -16 -5 -23 -23 -34 -20 -46 15 -6 16 -12 28
-14 26 -3 -2 0 -17 6 -32 8 -22 8 -30 -2 -37 -19 -12 -24 -10 -36 15 -11 21
-11 20 -6 -5 9 -41 -12 -35 -26 7 -15 45 -8 82 8 45 l11 -25 1 25 c0 15 3 20
8 14 5 -9 11 -8 20 2 11 12 6 14 -30 14 -30 0 -55 8 -80 25 -37 25 -92 33
-103 15 -3 -5 -30 -10 -60 -10 -41 0 -56 4 -64 18 -9 14 -10 12 -11 -13 -1
-39 -32 -76 -66 -78 -22 -2 -31 5 -49 40 -17 31 -25 38 -29 27 -9 -23 -7 -36
4 -29 6 3 7 -1 3 -10 -5 -13 -7 -14 -14 -3 -5 7 -9 23 -9 35 0 12 -7 26 -16
31 -13 7 -16 19 -11 51 5 40 -5 62 -18 41 -4 -6 -11 -8 -16 -4 -6 3 -7 -4 -4
-19 5 -20 2 -27 -14 -32 -28 -8 -44 3 -38 26 3 11 1 19 -4 19 -12 0 -11 97 1
121 11 20 40 26 40 9 0 -6 12 -3 26 7 25 16 27 16 40 -2 8 -10 14 -22 14 -27
0 -4 7 -8 15 -8 11 0 15 12 15 46 0 25 5 54 10 64 7 13 7 21 0 25 -5 3 -11 21
-12 38 -1 22 -4 14 -9 -23 -5 -38 -7 -14 -5 80 1 74 0 125 -2 112 -2 -13 -11
-32 -20 -43 -16 -18 -17 -18 -24 -2 -6 16 -7 16 -8 -2 l-1 -20 -9 20 c-8 19
-9 19 -9 -1 -1 -28 -33 -27 -43 1 -6 19 -6 18 -7 -2 -1 -13 -5 -23 -10 -23 -8
0 13 138 24 148 3 3 5 -6 6 -19 0 -22 1 -23 9 -4 5 12 7 -5 3 -45 -8 -88 3
-73 16 23 6 43 13 91 16 105 4 22 2 20 -6 -5 -14 -38 -39 -52 -39 -22 0 25 57
116 77 123 8 4 19 4 24 0 5 -3 9 -1 9 5 0 5 -4 11 -9 13 -6 2 8 22 30 45 21
23 39 37 39 30 1 -7 7 -1 15 13 8 14 15 21 15 15 0 -5 8 2 16 18 15 28 34 36
35 15 0 -7 5 -2 11 12 7 16 12 20 15 12 4 -10 9 -6 17 10 14 27 51 36 59 14 4
-9 2 -16 -3 -16 -6 0 -10 -8 -10 -17 0 -15 -2 -16 -10 -3 -5 8 -10 10 -10 5 0
-6 -10 -11 -22 -12 -12 -1 -26 -9 -30 -18 -5 -8 -13 -13 -19 -10 -5 4 -9 -2
-9 -12 -1 -18 -39 -95 -40 -79 0 5 -6 3 -14 -3 -8 -6 -18 -11 -22 -10 -20 3
-34 -2 -34 -12 0 -6 9 -9 20 -6 11 3 20 1 20 -4 0 -5 -7 -9 -15 -9 -8 0 -15
-4 -15 -9 0 -5 -12 -23 -26 -40 -28 -34 -26 -44 17 -66 25 -13 29 -22 30 -58
1 -36 2 -38 9 -17 7 21 8 19 9 -17 1 -25 -4 -43 -11 -45 -8 -3 -14 -33 -16
-89 -2 -60 0 -80 7 -69 6 8 11 30 11 48 0 25 9 42 38 70 21 21 41 45 44 54 4
9 19 22 35 30 22 11 28 20 28 45 0 18 9 41 21 55 12 12 29 35 38 49 16 25 15
26 -8 37 -31 14 -36 8 -36 -42 0 -28 -3 -37 -9 -27 -7 11 -10 9 -14 -10 -2
-15 -5 -7 -6 19 0 26 5 49 13 58 8 7 12 23 9 34 -4 14 0 20 11 20 9 0 16 -4
16 -10 0 -18 29 -11 40 9 15 29 12 39 -11 46 -16 5 -30 -1 -55 -26 -32 -31
-47 -58 -24 -44 16 10 12 -11 -5 -25 -8 -7 -16 -24 -16 -39 -1 -22 -3 -21 -9
9 -4 19 -8 27 -9 18 0 -10 -14 -29 -30 -44 -27 -24 -28 -28 -23 -92 2 -37 1
-64 -3 -60 -5 5 -7 28 -7 54 2 28 -2 43 -8 39 -5 -3 -10 0 -10 8 0 8 -13 20
-30 26 -19 6 -30 17 -30 28 0 20 47 69 57 60 3 -4 13 4 23 16 23 30 52 87 44
87 -4 0 7 14 25 31 20 19 40 29 54 27 12 -2 27 2 32 9 8 10 23 1 63 -37 45
-44 58 -48 53 -17 0 4 17 23 39 43 41 37 49 57 28 70 -8 5 -9 0 -6 -14 8 -30
0 -27 -12 4 -6 16 -7 32 -1 42 8 14 11 13 21 -10 7 -14 20 -28 30 -31 24 -6
14 40 -11 54 -26 14 -24 22 12 44 67 43 74 45 169 43 52 0 85 -3 73 -5z m-373
-33 c0 -13 -33 -21 -43 -11 -16 16 12 44 29 30 8 -6 14 -15 14 -19z m434 21
c3 -5 17 -8 31 -8 13 0 23 3 20 7 -7 11 44 3 58 -9 7 -5 26 -8 43 -6 17 2 37
-1 45 -6 10 -8 9 -9 -8 -4 -36 10 -22 -21 33 -70 27 -24 44 -44 38 -45 -5 0
-23 14 -39 30 -39 41 -56 38 -19 -2 l29 -33 -32 29 c-18 16 -30 32 -28 36 3 4
-2 13 -11 20 -12 11 -12 15 -2 22 10 7 10 9 -2 5 -8 -2 -24 0 -35 5 -11 6 -4
-4 15 -20 43 -38 32 -42 -16 -5 -23 17 -31 29 -23 33 6 4 0 8 -15 8 -14 0 -23
-4 -20 -9 7 -12 -9 -11 -24 1 -34 28 23 -25 96 -89 45 -40 82 -78 82 -83 0 -6
-27 15 -61 46 -45 42 -64 54 -73 47 -9 -8 -13 -7 -13 4 0 8 5 11 10 8 6 -3 7
-1 3 5 -4 6 -13 9 -21 6 -8 -4 -12 -10 -9 -15 9 -15 -7 -10 -53 16 -54 32 -56
42 -3 15 54 -28 71 -16 30 21 -17 16 -35 29 -40 29 -5 0 -12 5 -15 10 -3 6 1
10 9 10 8 0 17 -4 20 -9z m-340 -30 c-36 -32 -131 -71 -172 -70 -23 0 -17 5
32 29 54 27 154 69 166 69 3 0 -9 -12 -26 -28z m307 12 c13 -15 12 -15 -8 -4
-24 12 -29 21 -14 21 5 0 15 -7 22 -17z m59 -34 l25 -20 -32 16 c-18 8 -33 18
-33 20 0 10 16 4 40 -16z m85 -4 c17 -14 25 -25 18 -25 -7 0 -25 11 -40 25
-36 32 -17 32 22 0z m166 8 c16 -10 29 -22 29 -27 0 -6 -5 -5 -12 2 -16 16
-33 16 -20 0 7 -9 6 -17 -4 -26 -11 -10 -19 -7 -46 19 -23 21 -26 27 -11 20
12 -6 25 -16 28 -21 3 -6 12 -10 18 -10 7 0 -1 10 -16 22 -22 16 -25 23 -15
29 17 11 16 12 49 -8z m-350 -14 c11 -6 30 -12 41 -14 12 -3 34 -17 50 -32 18
-17 28 -22 28 -13 0 8 26 -11 58 -43 32 -32 61 -55 64 -52 3 3 11 -3 19 -12
13 -16 12 -17 -3 -4 -11 8 -18 9 -18 3 0 -6 5 -14 10 -17 6 -3 17 -21 25 -38
9 -18 10 -23 3 -12 -25 38 -85 95 -93 87 -5 -4 -5 -2 -2 4 9 15 -19 38 -48 40
-13 0 -35 11 -50 22 -23 18 -31 20 -43 10 -11 -9 -14 -9 -9 -1 4 6 3 14 -3 18
-6 4 -8 10 -5 15 3 5 -5 16 -17 24 -25 18 -42 21 -33 6 3 -6 -1 -7 -10 -3 -13
5 -14 7 -3 14 17 11 16 11 39 -2z m-302 -79 c0 -10 -4 -8 -10 5 -7 16 -8 12
-5 -15 3 -19 2 -29 -1 -22 -2 6 -9 9 -14 6 -6 -3 -7 6 -4 23 5 21 4 24 -4 13
-9 -13 -11 -12 -11 4 0 12 5 16 15 12 10 -3 15 1 16 12 0 14 2 14 9 -3 5 -11
9 -27 9 -35z m570 11 c25 -21 52 -36 59 -34 7 3 31 -7 52 -21 29 -19 40 -33
40 -51 0 -14 4 -25 9 -25 5 0 7 10 5 23 -4 20 -4 20 5 2 5 -11 19 -29 31 -40
52 -47 216 -321 207 -347 -2 -7 -11 1 -20 18 -15 29 -51 45 -40 17 11 -28 -6
-11 -31 31 -31 54 -26 94 7 55 l19 -24 -14 25 c-9 14 -20 25 -26 25 -6 0 -18
9 -27 20 -16 19 -16 19 -5 -3 25 -51 0 -29 -59 53 -57 78 -89 113 -59 65 11
-17 10 -22 -2 -30 -11 -7 -20 -4 -32 11 -25 30 -22 46 5 23 12 -10 16 -12 10
-4 -15 17 -17 44 -3 35 6 -3 10 -1 10 4 0 12 27 10 48 -3 11 -7 12 -4 3 13
-14 25 -24 26 -57 5 -23 -16 -26 -15 -45 2 -42 38 -62 74 -49 89 9 10 7 15 -7
19 -20 7 -102 86 -89 86 5 0 29 -17 55 -39z m206 -6 c28 -18 62 -35 76 -39 29
-6 136 -108 162 -154 30 -53 2 -36 -37 23 -38 58 -47 63 -65 41 -15 -18 -42
-18 -104 1 -47 15 -48 16 -45 51 3 36 -11 52 -81 91 -21 12 -3 33 22 26 12 -4
45 -22 72 -40z m-833 -43 c6 -7 8 -16 4 -19 -13 -13 -26 21 -24 62 l1 40 4
-35 c3 -19 9 -41 15 -48z m-35 21 c-3 -10 -5 -4 -5 12 0 17 2 24 5 18 2 -7 2
-21 0 -30z m625 -18 c3 3 13 -5 24 -17 15 -18 16 -20 2 -9 -15 11 -18 11 -18
0 0 -7 -10 -3 -25 11 -28 27 -35 52 -7 27 10 -10 21 -15 24 -12z m30 -130 c10
-17 9 -18 -4 -8 -8 7 -19 9 -23 5 -5 -4 -5 -1 -1 6 5 9 -2 25 -20 45 l-29 32
33 -30 c19 -16 39 -39 44 -50z m73 35 c31 -32 31 -34 -2 -44 -19 -6 -25 -2
-33 19 -23 60 -8 70 35 25z m361 -82 c24 -47 6 -31 -27 22 -39 63 -49 66 -15
4 33 -59 33 -78 0 -39 l-26 30 16 -32 c22 -43 20 -53 -4 -23 l-20 25 12 -33
c8 -19 18 -30 25 -28 7 3 17 -3 23 -14 16 -29 11 -38 -5 -10 -32 55 -12 6 45
-111 33 -68 60 -117 60 -109 0 9 6 5 15 -10 21 -36 18 -19 -5 35 -11 26 -20
52 -20 58 1 19 28 -22 46 -69 14 -36 14 -45 3 -57 -12 -13 -16 -12 -26 7 -11
19 -12 18 -7 -11 9 -45 -11 -43 -26 2 -7 21 -16 32 -23 28 -7 -4 -8 0 -4 11 4
11 -12 54 -43 116 -28 55 -50 105 -50 110 0 10 -39 69 -63 95 -5 6 19 -43 53
-108 71 -135 76 -171 7 -45 -26 46 -60 103 -77 128 -16 25 -30 49 -30 53 0 5
-10 17 -22 28 -16 12 -18 18 -9 19 8 0 27 -15 43 -32 20 -23 26 -26 18 -10
-16 33 4 27 36 -10 21 -27 24 -28 10 -6 -23 39 -20 58 5 28 18 -23 19 -23 9
-2 -8 17 -8 25 2 36 11 11 17 8 36 -18 13 -17 30 -43 38 -58z m-1119 50 c-3
-7 -5 -2 -5 12 0 14 2 19 5 13 2 -7 2 -19 0 -25z m944 -183 c6 -11 -1 -7 -16
10 l-26 30 18 -37 c10 -22 23 -36 31 -33 14 5 108 -132 98 -142 -3 -4 -13 2
-22 13 -14 18 -15 18 -4 -3 6 -14 7 -23 1 -23 -10 0 -91 123 -91 138 0 5 -9
17 -20 27 -28 25 -84 114 -77 122 4 3 13 0 22 -7 13 -11 15 -10 9 6 -7 21 62
-69 77 -101z m242 101 c6 6 67 -95 67 -111 0 -5 -15 16 -32 48 -35 65 -51 71
-18 8 54 -107 43 -119 -14 -17 -38 68 -47 97 -23 77 8 -6 16 -8 20 -5z m1 -88
c20 -38 32 -68 27 -68 -6 0 -27 31 -46 70 -57 113 -43 111 19 -2z m-28 -10
c19 -38 33 -75 31 -81 -3 -10 -87 142 -87 158 0 19 25 -16 56 -77z m-1289 -20
c-2 -18 -4 -4 -4 32 0 36 2 50 4 33 2 -18 2 -48 0 -65z m40 50 c-3 -7 -5 -2
-5 12 0 14 2 19 5 13 2 -7 2 -19 0 -25z m-60 -100 c-2 -24 -4 -5 -4 42 0 47 2
66 4 43 2 -24 2 -62 0 -85z m863 70 c0 -19 -2 -20 -10 -8 -13 19 -13 30 0 30
6 0 10 -10 10 -22z m430 -29 c12 -23 19 -43 16 -46 -4 -4 -46 69 -46 82 0 15
12 1 30 -36z m-1544 4 c-2 -10 -10 -45 -17 -78 -10 -52 -13 -57 -20 -36 -5 13
-6 40 -3 60 6 30 8 33 15 16 8 -17 8 -17 6 5 -1 14 2 30 8 37 14 17 17 16 11
-4z m311 -15 c-3 -7 -5 -2 -5 12 0 14 2 19 5 13 2 -7 2 -19 0 -25z m1387 -68
c5 -19 2 -16 -13 10 -11 19 -20 42 -20 50 0 18 24 -25 33 -60z m-339 -12 c47
-78 47 -78 41 -78 -6 0 -96 125 -96 134 0 20 22 -2 55 -56z m321 6 c14 -31 23
-62 21 -68 -5 -11 -57 95 -57 114 0 23 13 6 36 -46z m-335 -36 c23 -40 48 -80
55 -88 7 -8 17 -27 23 -43 17 -45 -8 -32 -30 16 -11 23 -40 73 -64 112 -25 38
-45 73 -45 78 0 18 20 -6 61 -75z m328 -38 c-1 -20 -5 -15 -25 25 -32 67 -31
105 1 45 13 -25 24 -56 24 -70z m-364 45 c46 -71 55 -99 20 -60 -21 23 -26 25
-21 10 l6 -20 -16 20 c-25 32 -39 65 -15 35 30 -36 26 -16 -5 28 -15 20 -24
29 -20 19 3 -11 2 -16 -4 -12 -17 11 -11 -6 26 -67 45 -74 37 -89 -9 -17 -54
86 -62 103 -44 96 9 -3 18 1 21 9 10 25 26 15 61 -41z m159 29 c4 -10 2 -13
-6 -8 -8 5 -9 1 -4 -12 5 -14 4 -16 -4 -8 -6 6 -8 18 -4 27 8 21 10 21 18 1z
m-1521 -18 c3 -8 0 -17 -7 -19 -10 -4 -12 1 -9 14 6 23 9 24 16 5z m1656 -35
c0 -14 -1 -14 -6 -1 -3 8 -10 24 -15 35 -9 20 -9 20 6 1 9 -11 16 -27 15 -35z
m-1394 29 c-3 -5 -10 -10 -16 -10 -5 0 -9 5 -9 10 0 6 7 10 16 10 8 0 12 -4 9
-10z m1041 -56 c19 -34 32 -68 29 -76 -6 -16 -65 -21 -65 -6 0 5 -4 7 -9 4
-24 -15 -61 105 -41 129 23 28 51 12 86 -51z m-1166 -148 c-12 -12 -14 97 -2
159 6 32 8 22 10 -54 2 -56 -1 -98 -8 -105z m27 52 c-2 -29 -3 -8 -3 47 0 55
1 79 3 53 2 -26 2 -71 0 -100z m1438 102 c-3 -5 -1 -20 5 -32 8 -17 3 -15 -19
10 -33 34 -38 34 -20 -1 10 -21 10 -21 -5 -3 -19 23 -19 26 -6 46 9 13 13 12
26 -5 16 -19 16 -19 10 5 -6 21 -5 22 4 7 6 -9 8 -22 5 -27z m-1630 -85 l-14
-80 5 70 c5 75 16 130 21 105 2 -8 -4 -51 -12 -95z m68 17 c-3 -45 -10 -82
-16 -82 -6 0 -7 23 -3 58 16 134 29 151 19 24z m55 8 c-4 -75 -11 -100 -23
-88 -3 3 -3 42 1 87 9 107 28 108 22 1z m-33 -15 c-4 -42 -10 -74 -12 -71 -3
3 -2 39 2 81 4 42 9 74 12 71 3 -2 2 -39 -2 -81z m52 -17 c-2 -18 -4 -4 -4 32
0 36 2 50 4 33 2 -18 2 -48 0 -65z m1417 70 c22 -31 20 -47 -4 -45 -13 1 -19
6 -15 15 2 7 1 10 -4 7 -13 -7 -24 13 -17 30 8 21 22 18 40 -7z m-1517 -35
c-3 -10 -5 -2 -5 17 0 19 2 27 5 18 2 -10 2 -26 0 -35z m1767 -18 c17 -68 14
-88 -5 -25 -11 36 -14 40 -25 26 -10 -15 -12 -13 -16 9 -6 27 7 44 15 23 3 -7
6 -2 6 11 1 35 7 24 25 -44z m-290 8 c9 -18 14 -33 12 -33 -6 0 -36 55 -36 66
0 11 5 3 24 -33z m125 -7 l22 -23 -35 -27 c-43 -32 -44 -32 -57 1 -8 22 -6 30
12 50 28 29 30 29 58 -1z m116 -43 c17 -69 17 -73 7 -73 -9 0 -32 88 -32 122
0 34 10 14 25 -49z m-291 26 c10 -17 16 -33 13 -35 -2 -3 -14 11 -25 31 -12
19 -18 35 -14 35 4 0 16 -14 26 -31z m-1437 -51 c-2 -13 -4 -3 -4 22 0 25 2
35 4 23 2 -13 2 -33 0 -45z m1391 37 c7 -14 12 -29 12 -33 -1 -10 -40 38 -40
49 0 18 17 8 28 -16z m22 5 c6 -11 8 -20 6 -20 -3 0 -10 9 -16 20 -6 11 -8 20
-6 20 3 0 10 -9 16 -20z m284 -15 c5 -22 4 -26 -4 -15 -5 8 -10 24 -10 34 0
26 6 18 14 -19z m-340 9 c3 -8 2 -12 -4 -9 -6 3 -10 10 -10 16 0 14 7 11 14
-7z m334 -52 c12 -26 22 -50 22 -53 0 -4 -25 -24 -56 -45 -46 -32 -57 -36 -64
-24 -8 12 -10 11 -10 -4 0 -11 -8 -29 -17 -40 -16 -19 -16 -19 -1 -7 9 7 22
10 28 6 5 -3 10 -1 10 6 0 12 8 20 73 66 49 34 57 24 56 -71 -1 -38 3 -71 7
-75 16 -11 15 -95 0 -139 -9 -25 -11 -40 -5 -36 25 15 -47 -142 -75 -165 -9
-8 -16 -19 -16 -25 -1 -18 -40 -64 -40 -45 0 8 5 20 11 26 6 6 7 13 2 15 -4 2
-21 -8 -36 -23 -24 -23 -25 -27 -7 -22 16 4 19 2 14 -13 -13 -34 -44 -73 -74
-91 -16 -9 -27 -20 -24 -24 8 -14 -127 -107 -221 -153 -116 -57 -323 -110
-287 -74 21 21 13 30 -22 24 -18 -4 -41 -4 -50 0 -24 9 -20 49 7 62 12 6 17
11 10 11 -12 1 42 99 62 113 5 4 9 26 9 48 -1 35 3 45 32 68 20 16 34 36 34
49 0 14 10 28 28 38 22 13 23 15 5 10 -21 -6 -23 -3 -23 37 0 57 18 118 36
125 9 3 12 9 7 12 -4 3 -15 20 -23 36 -14 26 -22 30 -60 32 -25 2 -62 -2 -83
-9 -24 -7 -41 -8 -47 -2 -7 7 28 25 98 53 59 23 116 47 127 53 152 83 228 119
240 114 8 -3 15 0 15 7 0 16 156 111 169 102 6 -3 11 1 11 9 0 17 80 76 95 70
6 -3 21 -26 33 -52z m70 3 c0 -16 -2 -15 -8 5 -11 34 -11 60 0 35 5 -11 8 -29
8 -40z m39 -27 c-3 -8 -6 -5 -6 6 -1 11 2 17 5 13 3 -3 4 -12 1 -19z m-1780
-55 c-2 -16 -4 -5 -4 22 0 28 2 40 4 28 2 -13 2 -35 0 -50z m-60 -5 c-2 -13
-4 -5 -4 17 -1 22 1 32 4 23 2 -10 2 -28 0 -40z m1827 -38 l5 -65 -14 60 c-17
70 -19 108 -6 85 5 -8 11 -44 15 -80z m-22 -25 l6 -50 -13 40 c-8 22 -13 56
-13 75 0 31 1 32 7 10 4 -14 10 -47 13 -75z m-1802 -37 c0 -5 -7 -8 -15 -8
-12 0 -15 13 -14 58 l1 57 14 -50 c7 -27 14 -53 14 -57z m37 -40 c-3 -7 -5 -2
-5 12 0 14 2 19 5 13 2 -7 2 -19 0 -25z m113 -35 c-10 -16 -11 -15 -6 7 3 14
6 34 7 45 1 13 3 11 6 -7 2 -15 -1 -35 -7 -45z m-132 30 c2 -13 10 -23 17 -23
8 0 29 -9 47 -20 18 -11 41 -20 51 -20 22 0 39 -40 25 -57 -7 -9 -7 -13 1 -13
6 0 16 -10 22 -22 8 -20 9 -19 4 7 -3 17 -9 39 -12 50 -4 16 1 13 26 -11 29
-29 67 -44 113 -44 12 0 23 11 29 30 6 17 15 30 21 30 5 0 7 4 4 9 -6 9 16 21
39 21 7 0 16 -8 18 -17 4 -14 5 -12 6 5 1 23 25 30 37 11 5 -8 10 -6 16 5 14
25 43 19 55 -11 l12 -28 -6 28 c-6 33 14 37 27 5 5 -13 9 -18 9 -11 1 8 7 8
26 0 24 -12 61 -90 50 -107 -8 -13 -59 -19 -73 -8 -9 8 -11 7 -7 -4 8 -19 -36
-33 -47 -15 -5 8 -8 7 -8 -5 0 -27 -28 -21 -44 10 -18 31 -20 25 -6 -13 8 -21
7 -26 -2 -22 -7 2 -21 0 -31 -5 -13 -6 -19 -4 -24 8 -6 16 -7 16 -14 -2 -7
-19 -8 -19 -8 0 -1 19 -2 19 -14 2 -11 -15 -12 -11 -12 26 1 24 -2 57 -5 73
-7 28 -7 27 -15 -17 -4 -27 -5 -61 -3 -77 2 -17 1 -28 -3 -25 -4 2 -9 0 -11
-4 -1 -5 -25 -12 -51 -15 -43 -6 -49 -5 -57 16 l-9 22 0 -23 c-1 -22 -4 -23
-73 -20 l-73 3 -21 45 c-42 88 -42 90 13 92 l48 1 -50 6 c-50 6 -50 6 -61 51
-26 107 -26 112 -1 108 14 -2 23 -11 25 -25z m1809 5 c-3 -8 -6 -5 -6 6 -1 11
2 17 5 13 3 -3 4 -12 1 -19z m-890 -158 c13 0 37 -75 29 -89 -4 -6 -4 -21 -1
-32 5 -15 10 -18 15 -10 4 8 15 -8 28 -40 25 -59 28 -86 7 -49 l-15 25 6 -30
c5 -29 5 -29 -12 -10 -13 16 -16 17 -11 3 7 -19 3 -23 -34 -31 -28 -7 -27 -8
-76 111 -3 6 2 12 10 12 8 0 18 -6 20 -12 3 -8 6 -6 6 5 1 11 -6 17 -22 17
-15 0 -28 9 -35 23 -11 20 -11 20 -6 -8 5 -29 5 -29 -11 -10 -17 20 -17 20
-10 -2 13 -44 -13 -22 -34 28 -26 65 -27 96 0 49 15 -26 18 -29 13 -10 -4 14
-9 31 -11 38 -11 26 8 10 27 -25 12 -21 18 -29 14 -18 -22 66 -9 91 20 38 l15
-28 -5 31 c-5 25 -2 32 18 41 18 9 25 8 34 -3 6 -8 16 -14 21 -14z m113 10 c0
21 16 0 28 -37 13 -40 8 -42 -13 -5 l-15 27 6 -30 5 -30 -15 25 c-10 16 -15
19 -16 10 0 -13 -1 -13 -10 0 -13 19 -13 8 0 -24 16 -42 1 -30 -20 17 -23 50
-27 36 -5 -17 9 -21 11 -36 5 -36 -9 0 -40 62 -40 80 0 14 33 21 41 9 4 -8 9
-3 14 12 7 22 8 22 21 4 10 -13 14 -14 14 -5z m80 -34 c-1 -17 -2 -18 -9 -6
-5 8 -12 26 -15 40 -7 24 -6 24 8 6 9 -11 16 -29 16 -40z m-21 -16 c0 -11 -3
-10 -14 4 -8 11 -15 29 -15 40 1 19 2 19 15 -4 8 -14 14 -32 14 -40z m-1203
21 c-8 -12 -46 -21 -46 -11 0 5 8 11 18 13 29 8 33 7 28 -2z m874 -78 c11 -30
18 -58 15 -61 -5 -5 -55 101 -55 119 0 24 20 -5 40 -58z m-865 -15 c10 -32 22
-58 27 -58 5 0 6 -4 3 -10 -3 -5 -1 -10 5 -10 6 0 9 -4 6 -9 -4 -5 -3 -11 1
-13 13 -5 44 -79 38 -89 -4 -5 -2 -9 3 -9 14 0 35 -57 26 -71 -4 -7 -3 -10 3
-6 14 9 34 -47 27 -71 -4 -11 -3 -13 3 -5 5 7 31 -45 72 -147 36 -88 68 -157
73 -154 11 7 10 -4 -4 -29 -10 -21 -10 -21 7 -7 17 14 17 14 7 -7 -16 -29 -15
-41 1 -19 12 16 17 9 50 -70 21 -48 35 -89 33 -91 -2 -3 -7 5 -11 16 -3 12
-10 19 -15 16 -4 -3 -6 5 -3 17 4 19 3 20 -7 8 -9 -12 -10 -10 -5 10 5 19 4
21 -4 10 -6 -8 -8 -26 -5 -40 l5 -25 -15 25 c-17 28 -22 19 -6 -11 14 -24 -5
-26 -19 -2 -9 17 -11 16 -33 -5 -29 -27 -35 -27 -41 -4 -3 12 -5 9 -6 -8 -2
-17 -7 -8 -17 29 -8 30 -12 64 -9 75 4 13 3 16 -2 9 -12 -17 -67 166 -57 191
5 12 4 17 -2 13 -14 -8 -37 58 -29 86 4 16 4 18 -3 8 -14 -20 -25 20 -17 62 5
25 4 29 -5 17 -9 -12 -10 -9 -6 15 5 21 4 26 -3 15 -8 -11 -12 -9 -21 14 -7
20 -8 32 0 40 5 5 10 15 10 21 0 5 -5 3 -11 -5 -8 -12 -10 -12 -8 5 1 11 -3
33 -9 48 -7 16 -12 38 -12 50 0 12 -13 69 -29 127 -16 57 -27 108 -24 113 8
13 17 -2 38 -65z m834 21 c25 -61 28 -95 6 -66 -13 18 -14 17 -17 -5 -4 -21
-5 -20 -20 12 l-16 35 5 -37 c4 -30 2 -38 -10 -38 -8 0 -22 -2 -30 -5 -10 -4
-22 13 -41 55 -15 34 -26 63 -24 64 1 2 15 6 31 10 18 4 27 2 27 -6 0 -6 7 -3
15 8 15 19 15 19 31 -1 16 -20 16 -20 9 3 -13 43 13 21 34 -29z m354 10 c-4
-15 -8 -17 -14 -8 -6 11 4 28 18 29 0 0 -1 -9 -4 -21z m-528 -21 c-11 40 11
23 33 -25 12 -27 23 -55 24 -63 2 -8 7 -19 11 -25 4 -5 14 -19 22 -30 14 -19
14 -18 5 9 -9 24 -8 27 5 22 8 -3 15 -1 15 5 0 6 10 9 23 7 12 -2 21 -9 19
-16 -1 -7 7 -30 18 -52 24 -47 24 -50 5 -50 -8 0 -21 12 -29 28 -8 15 -15 23
-16 19 0 -5 5 -17 11 -29 18 -34 3 -31 -21 4 -20 31 -22 27 -5 -14 4 -11 3
-18 -4 -18 -5 0 -31 42 -55 93 -44 88 -57 108 -36 52 9 -23 8 -26 -5 -21 -8 3
-15 1 -15 -4 0 -6 -8 -10 -18 -10 -13 0 -25 16 -40 53 -27 63 -27 62 -3 64 10
1 23 -8 29 -20 9 -19 10 -17 6 13 l-5 35 16 -25 c15 -23 15 -24 10 -2z m511
-14 c16 -39 11 -101 -6 -74 -7 11 -10 7 -15 -13 -4 -15 -11 -27 -15 -27 -11 0
-53 107 -47 122 3 7 16 -12 29 -42 23 -49 26 -52 33 -31 4 12 4 25 1 28 -3 4
-6 -2 -6 -12 0 -10 -3 -16 -6 -12 -3 3 -2 16 2 29 7 23 7 23 20 -7 18 -41 17
-17 -1 34 -18 51 -10 54 11 5z m-37 -29 c0 -5 -4 -3 -9 5 -5 8 -9 22 -9 30 0
16 17 -16 18 -35z m-579 18 c11 -17 11 -17 6 0 -12 38 13 14 33 -32 23 -54 27
-76 11 -66 -5 3 -10 1 -10 -4 0 -28 -32 -6 -54 37 -14 26 -25 41 -26 33 0 -8
-2 -12 -5 -9 -10 10 7 58 21 58 7 0 18 -8 24 -17z m-132 -51 c9 -28 25 -50 43
-61 16 -10 26 -21 22 -24 -3 -4 0 -7 9 -7 8 0 23 -9 34 -21 25 -28 63 -47 99
-49 44 -3 47 -2 28 18 -16 16 -19 16 -29 3 -10 -13 -15 -10 -33 19 -11 19 -21
38 -21 43 0 16 28 6 44 -15 16 -23 16 -23 6 -1 -14 29 -13 38 3 24 8 -6 18 -7
22 -3 5 4 5 -1 2 -11 -4 -10 -3 -16 2 -13 10 6 31 -37 31 -64 0 -11 -7 -20
-15 -20 -8 0 -15 -5 -15 -10 0 -6 10 -8 24 -4 22 5 28 -1 55 -48 33 -57 39
-77 17 -59 -10 9 -15 8 -20 -4 -3 -9 0 -15 8 -15 7 0 33 -22 57 -48 25 -27 59
-57 77 -67 18 -11 32 -23 32 -27 0 -8 -47 -2 -97 14 -18 5 -47 11 -64 13 -18
3 -34 7 -38 11 -3 4 4 4 16 1 13 -3 26 -1 29 4 3 5 -4 9 -16 9 -11 0 -37 7
-57 15 -33 14 -34 14 -22 -1 12 -15 11 -16 -11 -9 -49 15 -121 56 -115 65 3 6
-4 10 -16 10 -30 0 -132 76 -204 152 l-60 63 63 3 c39 2 69 -2 78 -9 12 -10
13 -9 8 5 -5 12 0 16 17 17 20 1 19 2 -6 8 -16 4 -34 4 -39 -1 -14 -11 -103
-10 -125 2 -18 9 -81 99 -81 114 0 4 36 6 80 4 44 -2 80 0 80 4 0 7 44 16 69
14 8 -1 21 -20 29 -44z m32 38 c1 8 10 -1 21 -20 19 -33 20 -32 4 15 -3 11 3
4 13 -15 11 -19 22 -46 26 -60 l7 -25 -16 25 -16 25 6 -25 c6 -24 5 -24 -9 -6
-12 15 -16 16 -17 5 0 -8 -5 -4 -11 9 -6 12 -15 22 -19 22 -5 0 -5 7 -2 17 4
11 3 14 -5 9 -14 -8 -15 -5 -6 19 5 13 8 14 15 3 7 -10 9 -10 9 2z m516 -66
c29 -67 26 -96 -4 -39 -12 22 -21 36 -22 32 0 -5 5 -17 11 -28 6 -11 8 -25 6
-32 -4 -13 -40 52 -51 93 l-7 25 21 -24 21 -25 -6 27 c-12 46 5 30 31 -29z
m-417 -39 c17 -39 25 -62 17 -52 -10 13 -15 14 -18 6 -3 -9 -7 -7 -11 5 -4 10
-3 15 3 11 14 -8 13 1 -4 33 -16 31 -31 79 -23 72 3 -3 20 -37 36 -75z m356
38 c29 -69 27 -89 -4 -33 -33 60 -36 70 -21 70 5 0 17 -17 25 -37z m-20 -23
c27 -53 32 -75 14 -64 -11 6 -49 88 -49 105 0 19 11 7 35 -41z m-25 -15 c30
-74 17 -84 -15 -11 -28 63 -29 66 -16 66 5 0 19 -25 31 -55z m-140 -27 c31
-55 37 -74 20 -63 -10 6 -60 98 -60 110 0 15 13 0 40 -47z m6 -74 c30 -64 52
-119 49 -122 -2 -3 -17 22 -32 54 -14 32 -37 76 -50 97 -32 51 -45 87 -32 87
6 0 35 -52 65 -116z m436 84 c-4 -15 -22 -27 -22 -14 0 2 -3 11 -6 20 -4 10 0
14 14 13 13 -1 18 -7 14 -19z m-33 -21 c0 -21 -1 -21 -9 -2 -12 28 -12 37 0
30 6 -3 10 -16 9 -28z m-39 -22 c6 -19 9 -41 7 -48 -3 -6 -6 -3 -6 8 -1 16 -3
17 -10 6 -6 -9 -6 -22 1 -34 20 -39 -16 -11 -39 29 -27 47 -31 83 -8 64 8 -7
15 -9 15 -4 1 5 8 -2 16 -16 14 -23 13 -13 -3 27 -4 10 -3 14 5 10 6 -4 16
-23 22 -42z m20 12 c0 -18 -2 -19 -10 -7 -13 20 -13 43 0 35 6 -3 10 -16 10
-28z m-84 -48 c14 -28 23 -53 20 -56 -4 -5 -56 89 -56 102 0 15 12 -1 36 -46z
m-11 -36 c49 -94 50 -97 37 -89 -14 8 -95 166 -85 166 4 0 26 -35 48 -77z
m-65 7 c17 -33 26 -60 22 -60 -10 0 -62 92 -62 109 0 22 10 10 40 -49z m26 9
c14 -28 24 -53 21 -55 -4 -4 -57 89 -57 100 0 16 12 1 36 -45z m-20 -83 c25
-48 43 -90 41 -93 -6 -5 -48 62 -51 81 -1 8 -7 20 -13 27 -14 18 -53 96 -53
106 1 16 32 -34 76 -121z m-27 -17 c39 -72 71 -135 71 -140 0 -4 10 -15 22
-23 12 -9 17 -16 11 -16 -14 0 -63 61 -63 78 0 7 -4 12 -10 12 -5 0 -30 36
-56 80 -44 77 -70 111 -39 50 18 -34 19 -44 5 -35 -11 7 -60 99 -60 112 0 4
10 -3 21 -17 17 -21 19 -22 10 -3 -14 28 -14 33 3 33 7 0 46 -59 85 -131z
m-98 48 c11 -22 18 -41 16 -43 -6 -7 -67 93 -67 109 1 15 26 -17 51 -66z m-26
-11 c17 -30 22 -47 14 -44 -14 4 -68 94 -69 113 0 15 25 -16 55 -69z m-645 19
c0 -5 -5 -3 -10 5 -5 8 -10 20 -10 25 0 6 5 3 10 -5 5 -8 10 -19 10 -25z m908
-30 c-3 -3 -9 2 -12 12 -6 14 -5 15 5 6 7 -7 10 -15 7 -18z m-38 -25 c13 -31
8 -60 -9 -60 -6 0 -20 18 -31 40 -24 46 -16 52 18 13 l23 -28 -16 33 c-8 17
-11 32 -6 32 5 0 14 -13 21 -30z m-840 -15 c0 -5 -5 -3 -10 5 -5 8 -10 20 -10
25 0 6 5 3 10 -5 5 -8 10 -19 10 -25z m697 -12 c-9 24 0 21 14 -4 8 -17 8 -20
-1 -14 -8 5 -11 3 -8 -6 3 -8 10 -13 15 -12 5 1 9 -7 9 -18 0 -29 -15 -18 -44
31 l-26 45 24 -20 c20 -17 23 -18 17 -2z m-34 -29 c10 -19 13 -33 7 -29 -14 9
-42 65 -32 65 5 0 16 -16 25 -36z m-33 -15 c32 -45 15 -49 -28 -6 -33 33 -34
37 -15 37 13 0 31 -13 43 -31z m120 -64 c14 -19 14 -19 -2 -6 -10 7 -18 18
-18 24 0 6 1 8 3 6 1 -2 9 -13 17 -24z m444 -10 c3 -9 0 -15 -8 -15 -8 0 -16
7 -20 15 -3 9 0 15 8 15 8 0 16 -7 20 -15z m-1134 -26 c0 8 2 12 5 9 3 -3 2
-13 -1 -22 -5 -14 -9 -15 -15 -4 -5 7 -9 18 -9 23 0 6 5 3 10 -5 8 -12 10 -12
10 -1z m827 5 c-3 -3 -12 -4 -19 -1 -8 3 -5 6 6 6 11 1 17 -2 13 -5z m-813
-60 c3 -8 2 -12 -4 -9 -6 3 -10 10 -10 16 0 14 7 11 14 -7z m545 -146 c0 -28
-2 -30 -9 -13 -12 28 -12 45 0 45 6 0 10 -15 9 -32z m148 -30 c-2 -13 -4 -3
-4 22 0 25 2 35 4 23 2 -13 2 -33 0 -45z m-287 14 c0 -28 -4 -39 -15 -39 -11
0 -15 11 -15 39 0 27 4 38 15 38 11 0 15 -11 15 -38z m50 4 c0 -25 -5 -35 -20
-39 -17 -4 -20 0 -20 34 0 32 3 39 20 39 16 0 20 -7 20 -34z m29 -4 c0 -24 -1
-25 -9 -7 -12 28 -12 47 0 40 6 -3 10 -18 9 -33z m28 -14 c-2 -13 -4 -5 -4 17
-1 22 1 32 4 23 2 -10 2 -28 0 -40z m280 -10 c-2 -13 -4 -3 -4 22 0 25 2 35 4
23 2 -13 2 -33 0 -45z m20 -5 c-2 -16 -4 -5 -4 22 0 28 2 40 4 28 2 -13 2 -35
0 -50z m196 60 c-7 -2 -19 -2 -25 0 -7 3 -2 5 12 5 14 0 19 -2 13 -5z m-646
-55 c-2 -13 -4 -5 -4 17 -1 22 1 32 4 23 2 -10 2 -28 0 -40z m210 30 c-3 -8
-6 -5 -6 6 -1 11 2 17 5 13 3 -3 4 -12 1 -19z m260 -30 c-2 -13 -4 -5 -4 17
-1 22 1 32 4 23 2 -10 2 -28 0 -40z m20 20 c-3 -7 -5 -2 -5 12 0 14 2 19 5 13
2 -7 2 -19 0 -25z m200 26 c-3 -3 -12 -4 -19 -1 -8 3 -5 6 6 6 11 1 17 -2 13
-5z m-67 -33 c0 -35 -9 -61 -21 -61 -10 0 -12 34 -3 68 9 32 24 27 24 -7z
m103 22 c-7 -2 -13 -9 -13 -14 0 -6 5 -7 10 -4 6 3 10 2 10 -2 0 -11 41 -9 60
2 9 5 11 4 6 -3 -4 -7 -5 -12 -2 -12 2 0 13 -3 23 -6 15 -5 15 -4 3 5 -8 6
-10 11 -5 11 39 0 42 -42 5 -74 -24 -20 -37 -24 -63 -19 -70 13 -77 19 -77 67
0 34 4 46 18 49 23 6 40 7 25 0z m-56 -65 c-2 -13 -4 -3 -4 22 0 25 2 35 4 23
2 -13 2 -33 0 -45z m-20 -5 c-3 -10 -5 -4 -5 12 0 17 2 24 5 18 2 -7 2 -21 0
-30z m-958 -78 c13 7 62 -16 55 -26 -3 -5 0 -9 5 -9 6 0 12 -19 12 -42 l2 -43
6 40 c3 23 2 44 -4 48 -6 5 -2 6 8 3 10 -3 20 -6 21 -6 3 0 -3 -56 -10 -87 -4
-22 -5 -22 -47 -7 -59 23 -97 65 -97 110 0 32 2 34 20 24 11 -6 24 -8 29 -5z
m176 -55 c13 -6 15 -9 5 -9 -8 0 -22 4 -30 9 -18 12 -2 12 25 0z m-44 -33 c1
-20 2 -20 9 3 7 20 8 16 9 -22 1 -42 -2 -48 -19 -48 -17 0 -20 7 -20 51 0 31
4 48 10 44 6 -3 10 -16 11 -28z m102 16 c-7 -2 -19 -2 -25 0 -7 3 -2 5 12 5
14 0 19 -2 13 -5z m817 -48 l-7 -50 -2 46 c0 25 2 49 6 52 10 11 11 5 3 -48z
m21 -28 c-13 -13 -15 41 -3 70 5 13 8 8 10 -21 2 -21 -1 -43 -7 -49z m26 16
c-2 -16 -4 -5 -4 22 0 28 2 40 4 28 2 -13 2 -35 0 -50z m-930 10 c-3 -10 -5
-2 -5 17 0 19 2 27 5 18 2 -10 2 -26 0 -35z m116 40 c-7 -2 -19 -2 -25 0 -7 3
-2 5 12 5 14 0 19 -2 13 -5z m-86 -55 c-2 -13 -4 -5 -4 17 -1 22 1 32 4 23 2
-10 2 -28 0 -40z m146 45 c-7 -2 -19 -2 -25 0 -7 3 -2 5 12 5 14 0 19 -2 13
-5z m674 -70 c-2 -16 -4 -3 -4 27 0 30 2 43 4 28 2 -16 2 -40 0 -55z m-727 16
c0 -36 -4 -49 -12 -47 -17 6 -21 38 -9 71 15 40 21 33 21 -24z m138 44 c-10
-2 -28 -2 -40 0 -13 2 -5 4 17 4 22 1 32 -1 23 -4z m539 -70 c-2 -16 -4 -3 -4
27 0 30 2 43 4 28 2 -16 2 -40 0 -55z m33 30 c0 -33 -3 -44 -11 -36 -9 9 -3
83 7 83 2 0 4 -21 4 -47z m-579 -60 c-9 -15 -10 -11 -11 19 0 54 14 83 18 36
2 -21 -1 -46 -7 -55z m39 37 c0 -27 -4 -50 -10 -50 -11 0 -14 83 -3 93 12 12
13 8 13 -43z m487 -12 c-2 -13 -4 -3 -4 22 0 25 2 35 4 23 2 -13 2 -33 0 -45z
m-620 5 c-3 -10 -5 -2 -5 17 0 19 2 27 5 18 2 -10 2 -26 0 -35z m70 -5 c-2
-13 -4 -5 -4 17 -1 22 1 32 4 23 2 -10 2 -28 0 -40z m153 2 c0 -27 -4 -50 -10
-50 -11 0 -14 83 -3 93 12 12 13 8 13 -43z m21 -43 c-8 -8 -11 2 -11 34 0 59
14 73 18 19 2 -24 -2 -48 -7 -53z m39 43 c0 -27 -4 -50 -10 -50 -5 0 -10 23
-10 50 0 28 5 50 10 50 6 0 10 -22 10 -50z m35 41 c8 -14 -6 -91 -16 -91 -5 0
-9 23 -9 50 0 46 11 63 25 41z m-268 -48 c-3 -10 -5 -4 -5 12 0 17 2 24 5 18
2 -7 2 -21 0 -30z m-20 -10 c-3 -10 -5 -4 -5 12 0 17 2 24 5 18 2 -7 2 -21 0
-30z"/>
<path d="M2436 3735 c4 -8 11 -15 16 -15 6 0 5 6 -2 15 -7 8 -14 15 -16 15 -2
0 -1 -7 2 -15z"/>
<path d="M2561 3646 c-38 -20 -59 -36 -53 -40 7 -4 12 -3 12 2 0 5 23 19 51
32 28 13 53 28 55 32 7 11 7 11 -65 -26z"/>
<path d="M2790 3562 c0 -5 10 -17 22 -28 l21 -19 -18 28 c-18 28 -25 33 -25
19z"/>
<path d="M2830 3506 c0 -2 8 -10 18 -17 15 -13 16 -12 3 4 -13 16 -21 21 -21
13z"/>
<path d="M2566 3484 c-11 -8 -16 -14 -10 -14 13 0 39 18 34 24 -3 2 -14 -2
-24 -10z"/>
<path d="M3010 3483 c0 -6 8 -17 18 -24 16 -13 16 -13 2 6 -8 11 -16 22 -17
24 -2 2 -3 0 -3 -6z"/>
<path d="M2490 3450 c-8 -5 -10 -10 -5 -10 6 0 17 5 25 10 8 5 11 10 5 10 -5
0 -17 -5 -25 -10z"/>
<path d="M1888 3433 c7 -3 16 -2 19 1 4 3 -2 6 -13 5 -11 0 -14 -3 -6 -6z"/>
<path d="M2160 3430 c-12 -8 -12 -10 3 -16 21 -8 35 2 21 16 -5 5 -15 6 -24 0z"/>
<path d="M2351 3423 c-1 -12 4 -25 9 -28 12 -7 12 2 0 30 -8 19 -9 19 -9 -2z"/>
<path d="M2949 3372 c5 -8 16 -17 25 -18 12 -2 14 2 7 14 -5 8 -16 17 -25 18
-12 2 -14 -2 -7 -14z"/>
<path d="M1872 3350 c0 -14 2 -19 5 -12 2 6 2 18 0 25 -3 6 -5 1 -5 -13z"/>
<path d="M1821 3344 c0 -11 3 -14 6 -6 3 7 2 16 -1 19 -3 4 -6 -2 -5 -13z"/>
<path d="M2650 3349 c0 -3 -10 -11 -22 -17 -22 -11 -22 -11 4 -6 23 5 29 1 47
-33 11 -21 20 -34 21 -30 0 4 -7 22 -16 39 -15 29 -15 32 0 44 15 10 14 12 -8
10 -15 0 -26 -4 -26 -7z"/>
<path d="M1891 3334 c0 -11 3 -14 6 -6 3 7 2 16 -1 19 -3 4 -6 -2 -5 -13z"/>
<path d="M1941 3284 c0 -11 3 -14 6 -6 3 7 2 16 -1 19 -3 4 -6 -2 -5 -13z"/>
<path d="M2397 3249 c-3 -12 0 -19 8 -19 20 0 25 13 10 27 -10 9 -14 8 -18 -8z"/>
<path d="M2720 3198 c0 -9 -8 -22 -17 -28 -15 -8 -13 -9 9 -4 21 5 27 1 33
-16 4 -12 9 -19 12 -17 2 3 0 15 -7 26 -10 19 -8 23 20 32 17 6 29 13 27 15
-2 3 -17 0 -32 -6 -22 -8 -30 -8 -37 2 -6 10 -8 9 -8 -4z"/>
<path d="M2650 3150 c-8 -5 -10 -10 -5 -10 6 0 17 5 25 10 8 5 11 10 5 10 -5
0 -17 -5 -25 -10z"/>
<path d="M2021 3114 c0 -11 3 -14 6 -6 3 7 2 16 -1 19 -3 4 -6 -2 -5 -13z"/>
<path d="M2807 3003 c-3 -4 1 -17 9 -28 10 -13 14 -15 14 -4 0 20 -16 43 -23
32z"/>
<path d="M2041 2978 c-1 -27 -2 -28 -62 -28 -81 0 -74 -20 14 -39 60 -13 67
-16 72 -43 4 -16 9 -27 11 -25 3 2 1 23 -4 45 -9 37 -8 40 8 30 9 -6 25 -8 35
-4 24 9 3 34 -33 38 -18 2 -28 11 -33 28 l-7 25 -1 -27z"/>
<path d="M2008 2983 c7 -3 16 -2 19 1 4 3 -2 6 -13 5 -11 0 -14 -3 -6 -6z"/>
<path d="M2682 2953 c-35 -14 -61 -27 -59 -30 3 -2 38 10 78 26 41 17 67 30
59 30 -8 0 -43 -12 -78 -26z"/>
<path d="M2525 2880 c3 -5 8 -10 11 -10 2 0 4 5 4 10 0 6 -5 10 -11 10 -5 0
-7 -4 -4 -10z"/>
<path d="M2945 3850 c3 -5 11 -10 16 -10 6 0 7 5 4 10 -3 6 -11 10 -16 10 -6
0 -7 -4 -4 -10z"/>
<path d="M2670 3816 c0 -2 8 -10 18 -17 15 -13 16 -12 3 4 -13 16 -21 21 -21
13z"/>
<path d="M2728 3769 c23 -27 62 -38 40 -12 -6 7 -13 11 -16 8 -3 -3 -15 3 -26
12 -18 15 -18 14 2 -8z"/>
<path d="M3110 3530 c12 -16 24 -30 26 -30 3 0 -4 14 -16 30 -12 17 -24 30
-26 30 -3 0 4 -13 16 -30z"/>
<path d="M1772 3310 c0 -14 2 -19 5 -12 2 6 2 18 0 25 -3 6 -5 1 -5 -13z"/>
<path d="M3010 3278 c0 -4 16 -36 35 -70 19 -35 35 -58 35 -53 0 12 -69 134
-70 123z"/>
<path d="M3006 3197 c33 -66 38 -70 30 -27 -3 19 -13 40 -21 46 -8 6 -12 13
-9 16 2 3 -2 8 -11 11 -11 5 -8 -7 11 -46z"/>
<path d="M2981 3205 c0 -5 6 -21 14 -35 8 -14 14 -20 14 -15 0 6 -6 21 -14 35
-8 14 -14 21 -14 15z"/>
<path d="M3161 2819 c-1 -9 -11 -24 -23 -33 -22 -15 -22 -15 7 -3 17 6 39 20
50 31 20 18 20 18 -2 7 -16 -8 -23 -8 -26 2 -4 7 -6 6 -6 -4z"/>
<path d="M3449 2803 l-24 -27 33 23 c32 23 39 31 24 31 -5 0 -19 -12 -33 -27z"/>
<path d="M3370 2767 c0 -11 -20 -31 -50 -49 -62 -38 -66 -49 -6 -14 25 14 47
26 50 26 12 0 6 -136 -6 -149 -9 -10 -9 -12 -1 -7 8 4 13 -5 16 -26 l4 -33 1
36 c2 25 9 41 25 52 l22 16 -22 -6 c-22 -5 -23 -3 -23 62 0 51 4 71 18 83 10
10 12 13 4 8 -9 -7 -16 -5 -23 5 -7 11 -9 11 -9 -4z"/>
<path d="M3040 2735 c-14 -8 -20 -14 -14 -15 5 0 19 7 30 15 24 18 16 19 -16
0z"/>
<path d="M2909 2679 c-16 -16 -15 -17 7 -15 13 0 26 6 28 13 8 19 -18 21 -35
2z"/>
<path d="M3195 2645 c-22 -13 -36 -25 -31 -25 10 0 76 39 76 46 0 7 -3 5 -45
-21z"/>
<path d="M2970 2539 c-18 -8 -21 -12 -11 -18 8 -6 21 -3 32 7 29 25 23 28 -21
11z"/>
<path d="M2890 2500 c-8 -5 -10 -10 -5 -10 6 0 17 5 25 10 8 5 11 10 5 10 -5
0 -17 -5 -25 -10z"/>
<path d="M3205 2500 c-3 -5 -2 -10 4 -10 5 0 13 5 16 10 3 6 2 10 -4 10 -5 0
-13 -4 -16 -10z"/>
<path d="M2985 2400 c-3 -5 1 -10 9 -10 8 0 18 5 21 10 3 6 -1 10 -9 10 -8 0
-18 -4 -21 -10z"/>
<path d="M3202 2363 c-28 -14 -50 -28 -48 -30 5 -5 106 45 106 52 0 7 1 7 -58
-22z"/>
<path d="M3005 2270 c-35 -17 -36 -18 -10 -13 17 3 39 12 50 19 28 20 6 17
-40 -6z"/>
<path d="M3175 2260 c-3 -5 -2 -10 4 -10 5 0 13 5 16 10 3 6 2 10 -4 10 -5 0
-13 -4 -16 -10z"/>
<path d="M3070 2210 c-8 -5 -10 -10 -5 -10 6 0 17 5 25 10 8 5 11 10 5 10 -5
0 -17 -5 -25 -10z"/>
<path d="M2790 2197 c-23 -7 -29 -12 -18 -14 9 -2 29 3 45 11 32 18 23 19 -27
3z"/>
<path d="M3020 2190 c-8 -5 -10 -10 -5 -10 6 0 17 5 25 10 8 5 11 10 5 10 -5
0 -17 -5 -25 -10z"/>
<path d="M2810 2135 c0 -6 7 -19 15 -29 12 -16 15 -17 15 -4 0 9 3 18 8 21 4
2 2 3 -4 1 -6 -1 -17 3 -23 9 -6 6 -11 7 -11 2z"/>
<path d="M1911 2650 c0 -8 4 -22 9 -30 12 -18 12 -2 0 25 -6 13 -9 15 -9 5z"/>
<path d="M2635 2610 c-3 -6 -3 -20 0 -31 6 -17 9 -19 16 -8 13 20 11 37 -2 19
-9 -12 -10 -11 -6 8 5 23 2 28 -8 12z"/>
<path d="M2660 2565 c0 -5 5 -17 10 -25 5 -8 10 -10 10 -5 0 6 -5 17 -10 25
-5 8 -10 11 -10 5z"/>
<path d="M2700 2535 c0 -5 5 -17 10 -25 5 -8 10 -10 10 -5 0 6 -5 17 -10 25
-5 8 -10 11 -10 5z"/>
<path d="M2680 2515 c0 -5 5 -17 10 -25 5 -8 10 -10 10 -5 0 6 -5 17 -10 25
-5 8 -10 11 -10 5z"/>
<path d="M1937 1845 c-4 -10 -3 -14 4 -9 7 4 9 0 5 -12 -8 -25 9 -53 17 -29 4
10 3 14 -4 9 -7 -4 -9 0 -5 12 8 25 -9 53 -17 29z"/>
<path d="M1920 1805 c0 -5 5 -17 10 -25 5 -8 10 -10 10 -5 0 6 -5 17 -10 25
-5 8 -10 11 -10 5z"/>
<path d="M2401 2620 c0 -8 4 -22 9 -30 12 -18 12 -2 0 25 -6 13 -9 15 -9 5z"/>
<path d="M2440 2595 c0 -5 5 -17 10 -25 5 -8 10 -10 10 -5 0 6 -5 17 -10 25
-5 8 -10 11 -10 5z"/>
<path d="M2200 2535 c0 -5 5 -17 10 -25 5 -8 10 -10 10 -5 0 6 -5 17 -10 25
-5 8 -10 11 -10 5z"/>
<path d="M2080 2296 c0 -9 30 -14 35 -6 4 6 -3 10 -14 10 -12 0 -21 -2 -21 -4z"/>
<path d="M2185 2188 c6 -15 55 -40 55 -28 0 7 -44 40 -54 40 -3 0 -3 -6 -1
-12z"/>
<path d="M2408 2103 c6 -2 18 -2 25 0 6 3 1 5 -13 5 -14 0 -19 -2 -12 -5z"/>
<path d="M1970 1690 c8 -5 20 -10 25 -10 6 0 3 5 -5 10 -8 5 -19 10 -25 10 -5
0 -3 -5 5 -10z"/>
<path d="M4290 3340 c-117 -33 -132 -39 -110 -48 14 -5 67 -25 117 -43 51 -19
93 -36 93 -39 0 -3 -34 -45 -75 -94 -41 -50 -73 -91 -71 -93 2 -2 65 13 140
34 124 34 136 40 136 60 0 28 1 28 -80 3 -36 -11 -69 -20 -73 -20 -4 0 15 28
43 62 27 35 50 65 50 68 0 3 -32 16 -70 29 -39 14 -73 28 -75 31 -3 4 26 15
63 25 77 20 85 25 76 48 -8 22 -5 22 -164 -23z"/>
<path d="M700 2985 c0 -41 6 -40 -139 -20 -84 12 -106 12 -113 3 -18 -29 -5
-35 95 -47 150 -18 147 -17 144 -59 -2 -31 1 -37 18 -37 21 0 21 0 39 143 7
51 6 52 -19 52 -22 0 -25 -4 -25 -35z"/>
<path d="M4397 2908 c-75 -38 -137 -73 -137 -76 0 -7 275 -102 293 -102 4 0 7
9 7 19 0 13 -11 23 -35 31 -21 7 -35 18 -35 28 0 9 -3 33 -6 52 -5 33 -3 37
30 53 34 16 49 48 28 60 -4 3 -69 -26 -145 -65z m49 -95 c-3 -3 -24 1 -48 9
l-43 15 40 20 40 21 8 -30 c5 -17 6 -32 3 -35z"/>
<path d="M508 2743 c-76 -4 -78 -4 -78 -30 0 -25 1 -26 59 -19 l58 7 7 -38 c3
-21 6 -55 6 -75 l0 -38 -60 0 c-46 0 -62 -4 -67 -16 -12 -31 11 -35 156 -28
141 7 141 7 141 31 0 24 -2 25 -62 21 l-63 -3 -3 73 -3 72 61 0 c57 0 60 1 60
25 0 28 6 27 -212 18z"/>
<path d="M4270 2616 c0 -22 4 -23 97 -32 l97 -9 -112 -90 c-61 -49 -111 -93
-112 -96 0 -4 60 -12 133 -19 72 -6 139 -12 147 -13 8 -1 16 7 18 20 3 19 -3
22 -55 28 -32 3 -75 8 -96 11 l-37 6 110 91 c60 50 108 92 106 94 -4 4 -249
32 -278 33 -12 0 -18 -8 -18 -24z"/>
<path d="M1521 2494 c0 -11 3 -14 6 -6 3 7 2 16 -1 19 -3 4 -6 -2 -5 -13z"/>
<path d="M1500 2471 c0 -6 4 -13 10 -16 6 -3 7 1 4 9 -7 18 -14 21 -14 7z"/>
<path d="M601 2389 c-74 -16 -136 -31 -139 -34 -3 -2 4 -46 15 -97 17 -81 22
-93 39 -90 10 2 20 5 22 6 1 2 -4 34 -12 72 -8 38 -13 70 -11 72 2 2 19 7 39
12 l35 8 10 -50 c6 -27 11 -56 11 -63 0 -16 35 -21 44 -7 3 5 -1 35 -9 68 -7
32 -13 60 -12 61 1 0 18 4 39 8 39 7 40 7 53 -65 4 -19 9 -43 11 -52 6 -20 29
-24 39 -8 7 11 -23 171 -33 181 -4 4 -67 -6 -141 -22z"/>
<path d="M4221 2288 c-4 -13 -16 -54 -26 -91 -16 -59 -16 -70 -4 -78 22 -14
27 -11 34 21 4 16 10 32 14 34 4 3 55 -8 112 -24 123 -35 125 -35 133 -13 9
22 0 26 -118 58 -56 15 -104 29 -108 31 -3 2 -2 19 3 36 6 23 5 34 -4 40 -19
12 -27 9 -36 -14z"/>
<path d="M3230 2177 c0 -39 -203 -144 -358 -183 -57 -15 -149 -29 -222 -34
l-125 -9 130 4 c94 2 152 10 210 25 128 35 122 35 148 4 29 -34 48 -25 40 19
-5 33 -4 34 91 90 102 62 114 73 97 90 -8 8 -11 7 -11 -6z m-190 -173 c0 -22
-2 -25 -15 -14 -8 7 -15 19 -15 26 0 8 7 14 15 14 10 0 15 -10 15 -26z"/>
<path d="M4116 1980 c-20 -43 -36 -83 -36 -88 0 -9 239 -122 257 -122 12 0 84
170 77 181 -14 23 -36 4 -63 -56 -16 -36 -33 -65 -36 -65 -10 0 -65 30 -65 36
0 3 7 18 15 34 34 65 36 79 15 90 -18 10 -23 5 -47 -50 -20 -47 -30 -59 -42
-54 -9 3 -24 9 -33 11 -24 7 -23 15 9 85 22 50 24 61 12 69 -8 5 -17 9 -20 9
-3 0 -23 -36 -43 -80z"/>
<path d="M2388 2003 c7 -3 16 -2 19 1 4 3 -2 6 -13 5 -11 0 -14 -3 -6 -6z"/>
<path d="M749 1950 c-76 -38 -99 -55 -109 -79 -17 -42 -5 -98 30 -133 42 -42
86 -38 199 17 84 41 91 46 81 65 -6 11 -13 20 -15 20 -3 0 -47 -21 -100 -47
l-95 -47 -27 20 c-31 23 -38 43 -29 80 5 18 29 35 99 70 109 55 99 47 91 68
-9 23 -18 21 -125 -34z"/>
<path d="M2433 1993 c9 -2 23 -2 30 0 6 3 -1 5 -18 5 -16 0 -22 -2 -12 -5z"/>
<path d="M2485 1985 c24 -8 156 -12 144 -4 -8 5 -45 8 -84 8 -38 0 -65 -2 -60
-4z"/>
<path d="M2175 1899 c-77 -11 -96 -21 -25 -12 30 3 93 9 140 13 l85 7 -70 0
c-38 0 -97 -3 -130 -8z"/>
<path d="M2058 1873 c6 -2 18 -2 25 0 6 3 1 5 -13 5 -14 0 -19 -2 -12 -5z"/>
<path d="M2100 1859 c0 -5 5 -7 11 -3 6 3 15 0 20 -7 7 -11 9 -10 9 4 0 10 -8
17 -20 17 -11 0 -20 -5 -20 -11z"/>
<path d="M2050 1851 c0 -6 5 -13 10 -16 6 -3 10 -1 10 5 0 6 5 8 10 5 6 -3 10
-1 10 4 0 6 -9 11 -20 11 -11 0 -20 -4 -20 -9z"/>
<path d="M4009 1779 c-6 -12 -9 -22 -7 -24 2 -1 56 -35 121 -75 97 -59 121
-69 133 -59 8 6 13 16 12 20 -2 5 -58 42 -125 83 -117 72 -123 74 -134 55z"/>
<path d="M1437 1773 c-23 -6 -17 -27 9 -31 16 -3 16 -1 4 7 -12 8 -10 12 10
20 25 10 10 13 -23 4z"/>
<path d="M2305 1760 c11 -5 35 -9 53 -9 18 -1 31 -5 28 -10 -3 -4 43 -17 102
-27 90 -16 101 -20 72 -25 l-35 -6 36 -2 c55 -2 99 -12 93 -22 -3 -5 4 -9 15
-9 35 0 32 17 -7 33 -85 34 -307 88 -357 86 l-20 0 20 -9z"/>
<path d="M3193 1690 c0 -41 2 -58 4 -37 2 20 2 54 0 75 -2 20 -4 3 -4 -38z"/>
<path d="M887 1641 c-106 -81 -115 -90 -103 -107 13 -17 18 -15 90 39 42 32
76 52 76 45 0 -7 -7 -67 -15 -133 -8 -65 -15 -125 -15 -132 0 -8 48 23 108 68
141 108 133 101 118 121 -12 16 -19 13 -87 -38 -40 -30 -75 -50 -77 -44 -2 5
4 66 13 136 10 69 15 127 13 130 -3 2 -57 -36 -121 -85z"/>
<path d="M1644 1709 c22 -5 46 -14 53 -21 10 -8 12 -7 8 4 -4 9 -20 19 -37 22
-48 9 -68 5 -24 -5z"/>
<path d="M3941 1666 c-12 -22 -9 -32 37 -110 28 -47 50 -86 49 -86 -1 0 -45
13 -97 29 -93 28 -95 29 -114 10 -11 -10 -18 -20 -15 -23 8 -8 302 -87 306
-82 5 4 -131 262 -146 279 -4 4 -13 -3 -20 -17z"/>
<path d="M1785 1654 c9 -9 18 -14 21 -11 9 9 -6 27 -22 27 -13 0 -13 -2 1 -16z"/>
<path d="M1707 1604 c-8 -8 1 -24 12 -24 4 0 8 7 8 15 0 16 -9 20 -20 9z"/>
<path d="M1748 1573 c7 -3 16 -2 19 1 4 3 -2 6 -13 5 -11 0 -14 -3 -6 -6z"/>
<path d="M1813 1563 c15 -2 37 -2 50 0 12 2 0 4 -28 4 -27 0 -38 -2 -22 -4z"/>
<path d="M1125 1350 c-94 -95 -99 -101 -82 -117 16 -17 22 -12 119 84 88 88
100 104 89 117 -8 9 -16 16 -20 16 -3 0 -51 -45 -106 -100z"/>
<path d="M1275 1210 c-21 -83 -35 -153 -33 -155 3 -3 66 30 141 72 134 76 137
78 118 96 -19 19 -20 18 -102 -32 -45 -28 -84 -49 -86 -47 -3 2 7 46 21 97 24
87 24 93 8 105 -9 7 -20 14 -23 14 -4 0 -24 -68 -44 -150z"/>
<path d="M3585 1299 c-27 -22 -56 -46 -64 -54 -11 -11 1 -32 74 -129 83 -110
89 -116 106 -100 17 16 17 18 -17 63 l-35 46 41 35 c30 25 39 40 35 53 -9 23
-15 22 -55 -13 -44 -37 -54 -37 -79 -1 l-21 29 42 33 c63 48 62 47 48 64 -17
20 -18 20 -75 -26z"/>
<path d="M1516 1046 c-36 -68 -66 -126 -66 -129 0 -3 39 -26 87 -51 65 -35 88
-44 95 -34 13 22 4 32 -60 66 l-61 33 16 34 c9 19 19 35 22 35 3 0 29 -13 58
-29 37 -20 55 -25 62 -18 20 20 11 33 -44 60 -30 15 -55 30 -55 35 0 6 17 34
36 60 1 2 27 -11 58 -28 55 -31 86 -34 86 -8 0 11 -145 98 -163 98 -3 0 -35
-56 -71 -124z"/>
<path d="M3302 1120 c-73 -45 -94 -147 -44 -218 28 -39 98 -67 147 -58 74 14
134 98 122 172 -17 100 -138 157 -225 104z m112 -34 c106 -44 79 -196 -34
-196 -58 0 -100 42 -100 100 0 53 14 78 53 95 40 18 41 18 81 1z"/>
<path d="M1787 906 c-25 -74 -42 -137 -39 -140 17 -18 41 -3 52 32 16 49 24
56 47 43 13 -6 24 -30 32 -66 9 -42 18 -58 34 -64 29 -11 31 -3 14 63 -14 52
-14 56 4 61 54 17 76 101 39 148 -18 22 -94 57 -126 57 -7 0 -32 -59 -57 -134z
m112 73 c57 -20 54 -91 -5 -97 -50 -4 -59 9 -44 62 7 25 14 46 15 46 1 0 16
-5 34 -11z"/>
<path d="M2954 983 c-17 -3 -25 -19 -39 -78 -11 -41 -22 -75 -26 -75 -4 0 -28
26 -54 59 -38 48 -50 57 -70 53 -14 -2 -25 -7 -25 -11 0 -3 31 -42 69 -87 53
-61 71 -91 78 -125 7 -34 13 -44 28 -44 18 0 20 6 17 56 -3 41 4 81 23 140 14
46 28 92 31 102 3 9 2 16 -3 16 -4 -1 -17 -4 -29 -6z"/>
<path d="M2113 935 c-23 -16 -37 -57 -28 -85 3 -10 28 -35 55 -54 50 -36 61
-61 38 -84 -17 -17 -48 -15 -84 7 -23 14 -35 16 -43 8 -17 -17 -13 -26 22 -47
73 -45 167 -11 167 60 0 32 -18 54 -87 107 -23 18 -26 25 -17 40 15 24 46 28
82 9 22 -11 32 -12 41 -3 17 17 14 23 -23 41 -42 20 -95 21 -123 1z"/>
<path d="M2356 823 c-13 -201 -13 -188 11 -191 20 -3 21 2 27 85 14 190 13
208 -10 211 -21 3 -22 -2 -28 -105z"/>
<path d="M2518 923 c-20 -3 -28 -10 -28 -24 0 -16 7 -19 40 -19 l40 0 0 -42
c0 -24 3 -80 7 -125 5 -71 9 -83 24 -83 10 0 20 3 22 8 2 4 1 60 -2 125 l-6
118 38 6 c27 4 37 10 37 24 0 17 -8 19 -72 18 -40 -1 -85 -4 -100 -6z"/>
<path d="M941 730 c-28 -39 -51 -75 -51 -80 0 -19 18 -10 38 18 l21 27 31 -18
c41 -25 53 -12 16 18 -24 19 -27 25 -17 44 15 26 24 26 61 -1 40 -29 53 -13
15 18 -60 49 -58 50 -114 -26z"/>
<path d="M3991 769 c-23 -17 -40 -37 -38 -44 3 -6 27 -41 53 -78 l48 -66 44
32 c47 34 57 45 48 54 -3 3 -24 -7 -46 -22 -22 -15 -42 -26 -43 -24 -1 2 -9
12 -16 22 -13 16 -10 21 20 46 41 35 33 52 -9 22 -37 -26 -44 -26 -59 -1 -11
17 -8 22 22 46 33 25 45 44 27 44 -4 0 -27 -14 -51 -31z"/>
<path d="M1115 605 c-26 -41 -43 -79 -40 -86 7 -11 105 130 105 151 0 26 -23
3 -65 -65z"/>
<path d="M3788 634 c-16 -8 -28 -19 -28 -24 0 -5 21 -44 46 -85 30 -50 50 -73
56 -67 6 6 4 19 -8 36 -25 40 -6 55 41 33 20 -9 42 -17 50 -17 26 0 16 16 -20
33 -28 13 -35 22 -35 46 0 56 -46 76 -102 45z m66 -20 c9 -8 16 -19 16 -24 0
-11 -29 -40 -40 -40 -4 0 -16 12 -25 27 -17 25 -17 27 1 40 23 17 29 16 48 -3z"/>
<path d="M1283 583 c-29 -6 -73 -58 -73 -88 0 -37 19 -70 50 -88 43 -26 67
-21 86 15 15 30 15 32 -2 45 -20 15 -44 17 -44 4 0 -5 7 -11 15 -15 20 -7 8
-36 -16 -36 -28 0 -59 36 -59 68 0 33 36 72 67 72 11 0 32 -9 45 -20 14 -10
28 -16 32 -13 25 25 -49 66 -101 56z"/>
<path d="M3647 554 c-3 -4 8 -34 24 -67 26 -50 29 -64 20 -84 -9 -19 -18 -24
-39 -21 -22 2 -33 15 -59 63 -30 58 -53 81 -53 53 0 -7 15 -40 33 -73 39 -73
72 -90 115 -58 37 27 38 61 6 133 -26 58 -34 67 -47 54z"/>
<path d="M1485 464 c-27 -63 -55 -134 -55 -139 0 -3 6 -5 13 -5 7 0 19 16 26
36 10 27 17 34 29 29 10 -4 30 -12 45 -17 23 -9 27 -15 22 -32 -15 -47 -17
-66 -7 -66 10 0 72 144 72 168 0 23 -18 12 -31 -20 -7 -18 -14 -35 -15 -37 -2
-2 -23 5 -48 14 l-45 17 15 36 c9 23 11 39 5 45 -6 6 -16 -5 -26 -29z"/>
<path d="M3393 447 c-29 -11 -53 -26 -53 -33 0 -10 6 -11 24 -4 23 8 26 6 44
-43 11 -29 23 -62 26 -74 4 -13 14 -23 23 -23 10 0 13 5 8 18 -4 9 -17 45 -30
79 l-24 63 24 6 c24 6 33 19 18 27 -5 2 -32 -5 -60 -16z"/>
<path d="M1720 401 c0 -5 9 -13 20 -16 25 -8 25 -14 0 -94 -14 -43 -17 -68
-11 -74 7 -7 12 -6 15 4 2 8 14 44 26 80 19 61 23 66 45 61 43 -8 27 15 -22
32 -53 18 -73 20 -73 7z"/>
<path d="M3230 378 c0 -7 7 -38 15 -68 19 -70 19 -67 -9 -85 -39 -26 -61 -7
-81 70 -12 42 -23 65 -33 65 -8 0 -12 -6 -9 -12 2 -7 12 -39 21 -70 9 -31 23
-64 32 -72 37 -38 114 -4 114 50 0 37 -30 134 -41 134 -5 0 -9 -6 -9 -12z"/>
<path d="M2959 328 l-46 -10 17 -91 c16 -91 38 -123 32 -47 -3 34 0 40 17 40
27 0 51 10 51 22 0 7 -15 8 -40 4 -31 -5 -40 -3 -40 8 0 8 -2 21 -5 29 -4 10
6 17 35 23 23 5 41 13 41 19 1 13 -9 14 -62 3z"/>
<path d="M2060 248 c-6 -40 -14 -81 -16 -90 -4 -12 0 -18 10 -18 10 0 16 9 16
23 0 37 15 51 49 44 16 -4 33 -2 36 3 6 10 -1 14 -46 24 -22 5 -25 10 -21 32
4 24 8 26 48 22 55 -4 60 17 7 26 -71 11 -70 12 -83 -66z"/>
<path d="M2287 262 c-38 -40 -37 -93 2 -133 67 -66 177 -3 156 90 -15 70 -108
95 -158 43z m111 -12 c46 -43 18 -120 -42 -120 -37 0 -49 7 -65 37 -17 33 -14
51 14 78 29 30 64 32 93 5z"/>
<path d="M2558 284 c-17 -16 -4 -184 13 -184 5 0 9 16 9 35 0 47 27 47 58 0
12 -19 29 -35 37 -35 12 0 10 8 -9 37 -23 33 -24 39 -11 53 18 20 19 50 2 74
-13 18 -87 33 -99 20z m80 -53 c4 -25 -12 -41 -40 -41 -14 0 -18 8 -18 36 0
33 2 35 28 32 20 -2 28 -9 30 -27z"/>
</g>
</svg>
